<svg width="483" height="480" viewBox="0 0 483 480" fill="none" xmlns="http://www.w3.org/2000/svg">
<path d="M388.421 325.196L93.9725 325.196L241.197 70.1956L388.421 325.196Z" stroke="white" stroke-opacity="0.5"/>
<path d="M411.197 240.196L156.197 387.42L156.197 92.9712L411.197 240.196Z" stroke="white" stroke-opacity="0.5"/>
<path d="M388.421 155.196L241.197 410.196L93.9725 155.196H388.421Z" stroke="white" stroke-opacity="0.5"/>
<path d="M326.197 92.9712L326.197 387.42L71.1968 240.196L326.197 92.9712Z" stroke="white" stroke-opacity="0.5"/>
<path d="M396.802 309.644L103.967 340.423L223.73 71.4304L396.802 309.644Z" stroke="white" stroke-opacity="0.25"/>
<path d="M407.785 275.844L127.748 366.834L188.967 78.8196L407.785 275.844Z" stroke="white" stroke-opacity="0.25"/>
<path d="M410.569 222.729L172.355 395.802L141.577 102.966L410.569 222.729Z" stroke="white" stroke-opacity="0.25"/>
<path d="M403.18 187.966L206.156 406.784L115.166 126.747L403.18 187.966Z" stroke="white" stroke-opacity="0.25"/>
<path d="M379.033 140.576L259.27 409.568L86.1972 171.354L379.033 140.576Z" stroke="white" stroke-opacity="0.25"/>
<path d="M355.252 114.164L294.032 402.179L75.2145 205.154L355.252 114.164Z" stroke="white" stroke-opacity="0.25"/>
<path d="M310.645 85.1964L341.423 378.032L72.4306 258.269L310.645 85.1964Z" stroke="white" stroke-opacity="0.25"/>
<path d="M276.844 74.214L367.834 354.251L79.8193 293.032L276.844 74.214Z" stroke="white" stroke-opacity="0.25"/>
<path d="M403.179 293.032L115.165 354.251L206.155 74.2141L403.179 293.032Z" stroke="white" stroke-opacity="0.25"/>
<path d="M410.569 258.269L141.576 378.032L172.355 85.1964L410.569 258.269Z" stroke="white" stroke-opacity="0.25"/>
<path d="M407.785 205.154L188.967 402.179L127.748 114.164L407.785 205.154Z" stroke="white" stroke-opacity="0.25"/>
<path d="M396.803 171.354L223.73 409.568L103.967 140.576L396.803 171.354Z" stroke="white" stroke-opacity="0.25"/>
<path d="M367.834 126.747L276.845 406.784L79.8202 187.966L367.834 126.747Z" stroke="white" stroke-opacity="0.25"/>
<path d="M341.423 102.966L310.645 395.802L72.4306 222.729L341.423 102.966Z" stroke="white" stroke-opacity="0.25"/>
<path d="M294.032 78.8196L355.252 366.834L75.2144 275.844L294.032 78.8196Z" stroke="white" stroke-opacity="0.25"/>
<path d="M259.269 72.4305L379.032 341.423L86.1961 310.644L259.269 72.4305Z" stroke="white" stroke-opacity="0.25"/>
</svg>
